<svg width="100" height="100" viewBox="0 0 100 100" fill="none" xmlns="http://www.w3.org/2000/svg">
  <!-- Hand -->
  <path d="M20 50V85H24" stroke="black" stroke-width="4" stroke-linecap="round" stroke-linejoin="round"/>
  <path d="M27 50V78H78C82 78 85 75 85 71C85 67 82 64 78 64H40V58H50" stroke="black" stroke-width="4" stroke-linecap="round" stroke-linejoin="round"/>
  
  <!-- Coin -->
  <circle cx="55" cy="40" r="25" stroke="black" stroke-width="4"/>
  <path d="M55 30V50M50 35H60C62 35 63 36 63 38C63 40 62 41 60 41H50C48 41 47 42 47 44C47 46 48 47 50 47H60" stroke="black" stroke-width="4" stroke-linecap="round" stroke-linejoin="round"/>
</svg>
